<svg xmlns="http://www.w3.org/2000/svg" width="96" height="96" viewBox="0 0 96 96" fill="none">
  <defs>
    <linearGradient id="goc" x1="10" y1="10" x2="86" y2="86" gradientUnits="userSpaceOnUse">
      <stop stop-color="#6366F1"/>
      <stop offset="1" stop-color="#0EA5E9"/>
    </linearGradient>
  </defs>
  <path d="M26 58c-7 0-12-6-12-12 0-9 7-16 16-16 1 0 2 0 3 .2 3.4-6.3 10-10.2 17-10.2 10.5 0 19 8.5 19 19 0 .7 0 1.3-.1 2 6.2 1 11.1 6.3 11.1 12.8 0 7.2-5.8 13-13 13H26Z" fill="#0F172A" stroke="url(#goc)" stroke-width="5"/>
  <rect x="30" y="44" width="10" height="10" rx="2" fill="#22D3EE"/>
  <rect x="44" y="44" width="10" height="10" rx="2" fill="#A78BFA"/>
  <rect x="58" y="44" width="10" height="10" rx="2" fill="#60A5FA"/>
</svg>
