<svg xmlns="http://www.w3.org/2000/svg" width="128" height="128" viewBox="0 0 128 128" fill="none">
<defs>
<linearGradient id="g1" x1="16" y1="8" x2="112" y2="120" gradientUnits="userSpaceOnUse">
<stop stop-color="#6366F1"/>
<stop offset="0.6" stop-color="#0EA5E9"/>
<stop offset="1" stop-color="#9333EA"/>
</linearGradient>
<linearGradient id="g2" x1="40" y1="28" x2="92" y2="104" gradientUnits="userSpaceOnUse">
<stop stop-color="#FFFFFF" stop-opacity="0.9"/>
<stop offset="1" stop-color="#FFFFFF" stop-opacity="0.2"/>
</linearGradient>
</defs>
<path d="M64 120c-1.9 0-3.7-.42-5.5-1.27l-30.7-14.5c-6.3-2.97-10.8-8.77-12-15.6C13 73.5 10.5 53.2 12.1 33.4c.42-5.16 3.8-9.63 8.64-11.4l38.9-14.3c2.7-.99 5.6-.99 8.3 0l38.9 14.3c4.8 1.76 8.2 6.23 8.6 11.4 1.6 19.8-.9 40.1-3.7 55.2-1.2 6.83-5.7 12.63-12 15.6l-30.7 14.5c-1.8.85-3.6 1.27-5.5 1.27Z" stroke="url(#g1)" stroke-width="6" fill="#0F172A"/>
<path d="M64 106c-1.2 0-2.3-.27-3.4-.81l-24.2-11.4c-4.6-2.17-7.9-6.43-8.7-11.5-2.1-12.8-4.1-28.9-2.8-44.6.31-3.76 2.8-7.02 6.36-8.3L63 16.4c2-.73 4.2-.73 6.2 0l32.7 12c3.5 1.3 6.1 4.54 6.4 8.3 1.3 15.7-.7 31.8-2.8 44.6-.8 5.07-4.1 9.33-8.7 11.5l-24.2 11.4c-1.1.54-2.2.81-3.4.81Z" fill="url(#g1)" opacity="0.3"/>
<path d="M46 64.8 59.6 78.4 86 48" stroke="url(#g2)" stroke-width="10" stroke-linecap="round" stroke-linejoin="round"/>
</svg>
